<svg width="55" height="54" viewBox="0 0 55 54" fill="none" xmlns="http://www.w3.org/2000/svg">
<path d="M19.375 9L27.25 13.5L29.5 10.125L35.125 9L44.125 12.375L48.625 19.125L44.125 30.375L28.375 47.25L26.125 45L19.375 40.5L8.125 24.75V18L11.5 11.25L19.375 9Z" fill="white"/>
<path fill-rule="evenodd" clip-rule="evenodd" d="M18.1375 11.25C13.2041 11.25 9.25 15.2252 9.25 20.4646C9.25 23.6862 10.6377 26.7743 13.5077 30.3861C16.4053 34.0327 20.5904 37.9452 25.849 42.8537L25.8523 42.8567L27.2558 44.172L28.6492 42.8762L28.6513 42.8742C33.9094 37.9556 38.0941 34.0385 40.9919 30.3893C43.8623 26.7744 45.25 23.6862 45.25 20.4646C45.25 15.2252 41.2959 11.25 36.3625 11.25C33.545 11.25 30.7865 12.6114 28.9837 14.7907C28.5562 15.3074 27.9206 15.6065 27.25 15.6065C26.5794 15.6065 25.9438 15.3074 25.5163 14.7907C23.7135 12.6114 20.955 11.25 18.1375 11.25ZM4.75 20.4646C4.75 12.8636 10.5969 6.75 18.1375 6.75C21.5171 6.75 24.7534 8.03683 27.25 10.1646C29.7466 8.03683 32.9829 6.75 36.3625 6.75C43.9031 6.75 49.75 12.8636 49.75 20.4646C49.75 25.1223 47.6952 29.1838 44.516 33.1876C41.4024 37.1087 37.0006 41.2261 31.9101 45.9878L31.7233 46.1625L31.7185 46.167L28.7823 48.8976C27.9162 49.703 26.5745 49.7005 25.7115 48.8918L22.7785 46.1433L22.6421 46.016C17.5297 41.2441 13.1089 37.1176 9.98451 33.1856C6.80478 29.1839 4.75 25.1223 4.75 20.4646Z" fill="white"/>
</svg>
