<?xml version="1.0" encoding="utf-8"?>
<!-- Generator: Adobe Illustrator 16.0.0, SVG Export Plug-In . SVG Version: 6.00 Build 0)  -->
<!DOCTYPE svg PUBLIC "-//W3C//DTD SVG 1.0//EN" "http://www.w3.org/TR/2001/REC-SVG-20010904/DTD/svg10.dtd">
<svg version="1.0" id="Layer_1" xmlns="http://www.w3.org/2000/svg" xmlns:xlink="http://www.w3.org/1999/xlink" x="0px" y="0px"
	 width="800px" height="800px" viewBox="0 0 800 800" enable-background="new 0 0 800 800" xml:space="preserve">
<g>
	<path fill="#F7AF31" d="M770.373,346.803c0-22.722-12.73-40.235-27.339-40.235c-14.563,0-27.335,17.556-27.335,40.235
		c0,19.638,9.538,31.754,21.526,34.709c-0.086,4.749-0.921,49.554-5.443,98.772c0,0,3.964,1.668,11.526,1.668
		c7.566,0,12.861-1.656,12.861-1.656c-4.376-43.514-6.266-85.503-6.723-96.896c0-0.089-1.389,0.417-3.317-0.134
		c-1.622-0.414-2.497-1.059-2.4-1.059h0.274c1.565,0,3.229-0.326,4.284-0.555c0.045,0,0.092,0,0.143-0.048l0.965-0.231
		c11.754-3.224,20.978-15.254,20.978-34.564V346.803z"/>
	<defs>
		<filter id="Adobe_OpacityMaskFilter" filterUnits="userSpaceOnUse" x="29.627" y="340.626" width="683.537" height="152.805">
			<feColorMatrix  type="matrix" values="1 0 0 0 0  0 1 0 0 0  0 0 1 0 0  0 0 0 1 0"/>
		</filter>
	</defs>
	<mask maskUnits="userSpaceOnUse" x="29.627" y="340.626" width="683.537" height="152.805" id="b_1_">
		<g filter="url(#Adobe_OpacityMaskFilter)">
			<path id="a_1_" fill="#FFFFFF" d="M29.398,306.379h742.729v187.144H29.398V306.379z"/>
		</g>
	</mask>
	<g mask="url(#b_1_)">
		<path fill="#F15025" d="M56.458,417.838c-14.844,3.822-26.832,10.326-26.832,27.518c0,16.643,11.293,22.719,23.696,22.719
			c9.586,0,20.049-3.547,27.605-12.668v10.641h25.263v-58.898c0-22.455-11.613-30.567-34.621-30.567
			c-12.304,0-23.316,2.399-33.411,5.534l-1.753,21.988c9.817-2.867,18.619-5.029,27.836-5.029c11.066,0,16.691,3.087,16.691,11.802
			v0.92L56.458,417.838z M64.751,450.102c-4.929,0-8.941-2.398-8.941-8.344c0-7.191,5.905-11.344,18.478-14.838l6.6-1.938v18.111
			C75.911,447.43,69.773,450.102,64.751,450.102z M119.421,348.557v117.49h25.307V345.698L119.421,348.557z M158.88,348.557v117.49
			h25.351V345.698L158.88,348.557z M198.384,380.313v85.694h25.352V413.92c9.169-5.848,20.235-7.469,29.727-7.012l1.339-30.099
			c-16.502,0-24.89,6.73-31.066,29.138v-28.581L198.384,380.313z M340.03,402.857l-1.617-3.965
			c-5.023-12.491-16.591-22.451-35.626-22.357c-22.225,0-44.99,13.51-44.99,45.451c0,27.789,16.917,46.043,46.463,46.043
			c16.183,0,27.796-4.969,34.342-9.309l1.659-25.119c-10.141,7.699-23.742,10.416-33.054,10.416c-9.169,0-15.62-2.717-19.726-7.195
			l47.389-22.074C339.893,412.494,342.151,407.93,340.03,402.857z M281.721,419.77c0-16.266,10.094-23.273,21.48-23.273
			c8.112,0,12.125,3.775,14.658,8.619l-36.092,16.824c0-0.697-0.046-1.428-0.046-2.158V419.77z M394.009,399.075
			c6.819,0,13.595,2.259,18.478,4.794v-24.012c-7.419-2.31-16.174-3.276-23.041-3.276c-28.768,0-43.745,17.979-43.745,45.729
			c0,27.705,14.978,45.719,43.784,45.719c8.564-0.08,17.046-1.635,25.075-4.604v-23.742c-6.316,2.908-13.547,5.26-20.506,5.26
			c-13.276,0-22.954-7.195-22.954-22.73C371.101,406.775,380.779,399.075,394.009,399.075z M425.035,466.047h25.347v-88.589
			l-25.358,2.855L425.035,466.047z M437.611,340.626c-10.144,0-16.408,6.128-16.408,14.661c0,8.661,6.219,14.797,16.408,14.797
			c10.143,0,16.083-6.136,16.083-14.797C453.751,346.754,447.754,340.626,437.611,340.626z M464.533,380.313v113.118h25.347v-27.385
			c4.438,1.365,9.053,2.051,13.689,2.027c25.261,0,44.438-16.91,44.438-49.459c0-29.172-13.363-42.034-31.662-42.034
			c-11.994,0-20.378,5.44-26.466,11.522v-10.691L464.533,380.313L464.533,380.313z M503.016,397.373
			c14.3,0,18.538,11.34,18.447,23.87c0.046,16.924-7.333,26.785-23.051,26.785c-2.866,0.012-5.723-0.285-8.532-0.879v-45.814
			C493.523,399.026,497.767,397.373,503.016,397.373z M636.646,402.857l-1.61-3.965c-5.026-12.491-16.597-22.451-35.632-22.357
			c-22.216,0-44.987,13.51-44.987,45.451c0,27.789,16.917,46.043,46.461,46.043c16.18,0,27.796-4.969,34.342-9.309l1.661-25.119
			c-10.137,7.699-23.741,10.416-33.051,10.416c-9.172,0-15.625-2.717-19.727-7.195l47.386-22.074
			C636.509,412.494,638.771,407.93,636.646,402.857L636.646,402.857z M578.335,419.77c0-16.266,10.097-23.273,21.485-23.273
			c8.109,0,12.119,3.775,14.654,8.619l-36.089,16.824c0-0.697-0.051-1.428-0.051-2.158V419.77z M668.183,403.777
			c0-5.488,7.505-6.867,14.746-6.867c7.1,0,15.672,1.151,25.952,5.713l-0.696-21.11c-6.409-2.855-14.981-4.932-25.945-4.932
			c-28.072,0-37.243,13.51-37.243,27.935c0,35.123,43.416,20.93,43.416,35.168c0,5.809-6.317,7.145-12.49,7.145
			c-10.903,0.023-21.629-2.838-31.075-8.293l-1.474,22.309c8.716,4.42,20.241,7.197,32.502,7.197
			c26.963,0,37.289-13.24,37.289-30.338c0.092-33.971-44.981-20.699-44.981-33.92V403.777z"/>
	</g>
</g>
</svg>
