<svg width="54" height="54" viewBox="0 0 54 54" fill="none" xmlns="http://www.w3.org/2000/svg">
<g clip-path="url(#clip0_502_5)">
<path fill-rule="evenodd" clip-rule="evenodd" d="M17.8875 11.25C12.9541 11.25 9 15.2252 9 20.4646C9 23.6862 10.3877 26.7743 13.2577 30.3861C16.1553 34.0327 20.3404 37.9452 25.5991 42.8537L25.6023 42.8567L27.0058 44.172L28.3992 42.8762L28.4013 42.8742C33.6594 37.9556 37.8442 34.0385 40.7419 30.3893C43.6123 26.7744 45 23.6862 45 20.4646C45 15.2252 41.0459 11.25 36.1125 11.25C33.295 11.25 30.5365 12.6114 28.7337 14.7907C28.3062 15.3074 27.6706 15.6065 27 15.6065C26.3294 15.6065 25.6938 15.3074 25.2663 14.7907C23.4635 12.6114 20.705 11.25 17.8875 11.25ZM4.5 20.4646C4.5 12.8636 10.3469 6.75 17.8875 6.75C21.2671 6.75 24.5034 8.03683 27 10.1646C29.4966 8.03683 32.7329 6.75 36.1125 6.75C43.6531 6.75 49.5 12.8636 49.5 20.4646C49.5 25.1223 47.4452 29.1838 44.266 33.1876C41.1524 37.1087 36.7506 41.2261 31.6601 45.9878L31.4733 46.1625L31.4685 46.167L28.5323 48.8976C27.6662 49.703 26.3245 49.7005 25.4615 48.8918L22.5285 46.1433L22.3921 46.016C17.2797 41.2441 12.8589 37.1176 9.73451 33.1856C6.55478 29.1839 4.5 25.1223 4.5 20.4646Z" fill="white"/>
</g>
<defs>
<clipPath id="clip0_502_5">
<rect width="54" height="54" fill="white"/>
</clipPath>
</defs>
</svg>
